<svg>


  <symbol id="burger" fill="#000000" xmlns="http://www.w3.org/2000/svg" viewBox="0 0 50 50">
    <path
      d="M 5 9 L 5 11 L 45 11 L 45 9 L 5 9 z M 5 24 L 5 26 L 45 26 L 45 24 L 5 24 z M 5 39 L 5 41 L 45 41 L 45 39 L 5 39 z"/>
  </symbol>


  <svg id="basket" width="30px" height="30px" viewBox="0 0 43 49" fill="none" xmlns="http://www.w3.org/2000/svg">
    <path d="M32.0443 15.3333V15.4833H32.1943H42.7387V46.0264C42.7387 46.7605 42.4471 47.4646 41.928 47.9837C41.4089 48.5028 40.7048 48.7945 39.9707 48.7945H3.02902C2.29488 48.7945 1.59082 48.5028 1.07171 47.9837C0.552595 47.4646 0.260962 46.7605 0.260962 46.0264V15.4833H7.59985V18.2389H3.16652H3.01652V18.3889V45.8889V46.0389H3.16652H39.8332H39.9832V45.8889V18.3889V18.2389H39.8332H32.1943H32.0443V18.3889V21.4445C32.0443 21.8099 31.8991 22.1603 31.6408 22.4187C31.3824 22.6771 31.0319 22.8222 30.6665 22.8222C30.3011 22.8222 29.9507 22.6771 29.6923 22.4187C29.4339 22.1603 29.2887 21.8099 29.2887 21.4445V10.8264C29.2887 8.76066 28.4681 6.77953 27.0074 5.31883C25.5467 3.85813 23.5656 3.03751 21.4998 3.03751C19.4341 3.03751 17.453 3.85813 15.9923 5.31883C14.5316 6.77953 13.711 8.76066 13.711 10.8264V15.3333V15.4833H13.861H25.9332V18.2389H13.861H13.711V18.3889V21.5208C13.711 21.8863 13.5658 22.2367 13.3074 22.4951C13.049 22.7535 12.6986 22.8986 12.3332 22.8986C11.9678 22.8986 11.6173 22.7535 11.3589 22.4951C11.1006 22.2367 10.9554 21.8863 10.9554 21.5208V10.8264C10.9554 9.44169 11.2281 8.07053 11.7581 6.79122C12.288 5.51191 13.0647 4.3495 14.0438 3.37035C15.0229 2.39121 16.1854 1.61451 17.4647 1.08461C18.744 0.554698 20.1151 0.281958 21.4998 0.281958C22.8846 0.281958 24.2557 0.554698 25.535 1.08461C26.8143 1.61451 27.9768 2.39121 28.9559 3.37035C29.935 4.3495 30.7117 5.51191 31.2416 6.79122C31.7716 8.07053 32.0443 9.44169 32.0443 10.8264V15.3333Z" fill="#363636" stroke="white" stroke-width="0.3"/>
  </svg>

</svg>

